<svg id="Capa_1" enable-background="new 0 0 512 512" height="512" viewBox="0 0 512 512" width="512" xmlns="http://www.w3.org/2000/svg"><g><g><path d="m456.953 279.543h-83.104c-5.522 0-10 4.477-10 10s4.478 10 10 10h83.104c3.809 0 6.906 3.098 6.906 6.906v43.913h-270.02v-43.913c0-3.808 3.098-6.906 6.906-6.906h83.104c5.522 0 10-4.477 10-10s-4.478-10-10-10h-29.839l22.59-247.016c.762-8.324-2.033-16.639-7.668-22.812-5.634-6.174-13.66-9.715-22.019-9.715h-197.343c-8.359 0-16.385 3.541-22.02 9.715s-8.43 14.488-7.668 22.812l34.38 375.93v68.942c0 19.08 15.522 34.602 34.602 34.602h340.573c30.009 0 54.423-24.414 54.423-54.423v-76.7c0-4.773-1.104-9.292-3.066-13.319 1.887-1.819 3.066-4.367 3.066-7.195v-53.913c-.001-14.838-12.071-26.908-26.907-26.908zm-256.208 0c-14.836 0-26.906 12.07-26.906 26.906v53.913c0 2.828 1.179 5.376 3.066 7.196-1.962 4.027-3.066 8.546-3.066 13.319v17.123h-100.45l-30.404-332.449h210.512l-19.57 213.993h-33.182zm-158.422-256.346c1.881-2.061 4.455-3.197 7.247-3.197h197.343c2.792 0 5.365 1.135 7.247 3.197s2.778 4.729 2.524 7.508l-1.358 14.845h-214.17l-1.358-14.845c-.254-2.779.643-5.446 2.525-7.508zm31.939 454.201v-59.398h99.578v34.008c-.054 0-.105-.008-.159-.008h-50.877c-11.116 0-20.159 9.043-20.159 20.159v19.841h-13.782c-8.051 0-14.601-6.55-14.601-14.602zm48.382 14.602v-19.841c0-.088.071-.159.159-.159h50.877c.088 0 .159.071.159.159v19.841zm341.215-34.423c0 18.981-15.442 34.423-34.423 34.423h-201.173c-18.981 0-34.423-15.442-34.423-34.423v-76.7c0-5.798 4.717-10.515 10.515-10.515h248.991c5.798 0 10.515 4.717 10.515 10.515v76.7z"/><path d="m385.849 399.181h-114c-5.522 0-10 4.477-10 10v44c0 5.523 4.478 10 10 10h114c5.522 0 10-4.477 10-10v-44c0-5.523-4.477-10-10-10zm-10 44h-94v-24h94z"/><path d="m160.37 169.51c-3.024-3.578-7.445-5.629-12.129-5.629s-9.105 2.052-12.129 5.629l-19.885 23.524c-13.955 16.509-12.913 41.416 2.373 56.701 7.917 7.917 18.444 12.277 29.641 12.277s21.724-4.36 29.641-12.277c15.286-15.286 16.329-40.191 2.374-56.701zm3.37 66.083c-4.14 4.14-9.644 6.42-15.499 6.42-5.854 0-11.358-2.28-15.498-6.42-7.993-7.992-8.538-21.015-1.241-29.647l16.739-19.803 16.739 19.803c7.298 8.632 6.753 21.655-1.24 29.647z"/><path d="m489.011 110.53c-15.902-14.625-35.598-23.717-56.957-26.294-27.423-3.313-54.478 4.28-76.177 21.373-21.59 17.007-35.229 41.341-38.403 68.519-1.305 11.17-.803 22.312 1.463 33.14-3.856 9.125-6.472 18.819-7.655 28.828-.648 5.484 3.271 10.456 8.757 11.104.398.047.794.07 1.187.07 4.997 0 9.317-3.741 9.918-8.827.77-6.51 2.241-12.802 4.346-18.803 6.923 2.425 14.102 4.116 21.463 5.023 4.179.515 8.342.767 12.474.767 43.407-.001 83.16-27.771 97.37-69.599 3.991-11.749 11.461-22.143 21.6-30.058 2.316-1.808 3.72-4.543 3.839-7.479.115-2.936-1.063-5.775-3.225-7.764zm-41.154 38.866c-12.53 36.882-49.734 60.186-88.461 55.417-5.138-.633-10.163-1.743-15.039-3.294 7.311-11.31 17.295-20.874 29.439-27.886 4.783-2.761 6.422-8.877 3.66-13.66-2.761-4.783-8.877-6.422-13.66-3.66-10.105 5.834-19.069 13.268-26.632 21.884.056-.583.107-1.165.175-1.748 2.553-21.858 13.532-41.437 30.914-55.129 17.492-13.779 39.302-19.893 61.404-17.229 13.502 1.63 26.181 6.5 37.204 14.228-8.58 8.914-15.063 19.481-19.004 31.077z"/><circle cx="328.849" cy="289.543" r="10"/></g></g></svg>